<?xml version="1.0" encoding="utf-8"?>
<!-- Generator: Adobe Illustrator 21.1.0, SVG Export Plug-In . SVG Version: 6.00 Build 0)  -->
<svg version="1.1" id="Layer_1" xmlns="http://www.w3.org/2000/svg" xmlns:xlink="http://www.w3.org/1999/xlink" x="0px" y="0px"
	 viewBox="0 0 24 24" style="enable-background:new 0 0 24 24;" xml:space="preserve">
<rect x="4" y="1" width="16" height="2"/>
<polygon points="4,18 9,18 9,23 "/>
<path d="M22.5,17v-1.5c0-1.93-1.57-3.5-3.5-3.5c-1.93,0-3.5,1.57-3.5,3.5V17H14v7h10v-7H22.5z M20,23h-2v-3h2V23z M21,17h-4v-1.5
	c0-1.1,0.9-2,2-2c1.1,0,2,0.9,2,2V17z"/>
<path d="M14.5,15.5c0-2.48,2.02-4.5,4.5-4.5c0.34,0,0.68,0.05,1,0.12V4H4v13h6v6h3v-7h1.5V15.5z"/>
</svg>
