<?xml version="1.0" encoding="utf-8"?>
<!-- Generator: Adobe Illustrator 19.2.1, SVG Export Plug-In . SVG Version: 6.00 Build 0)  -->
<svg version="1.1" id="Layer_1" xmlns="http://www.w3.org/2000/svg" xmlns:xlink="http://www.w3.org/1999/xlink" x="0px" y="0px"
	 viewBox="0 0 128 128" enable-background="new 0 0 128 128" xml:space="preserve">
<g>
	<path fill="#4189DD" d="M112.7,22.49v12.75h-4.17V23.16h-4.74v12.08h-4.17V23.16h-4.79v12.08h-4.17V18.99h18.84
		C97.89,7.27,81.79,0,64,0C28.65,0,0,28.65,0,64c0,35.35,28.65,64,64,64c35.35,0,64-28.65,64-64C128,48.16,122.23,33.67,112.7,22.49
		z M90.78,53.35H48.7l-3.6,3.6v19.1l3.6,3.6h42.08v12.73H44.17L31.74,79.95V53.22l12.43-12.43h46.61V53.35z"/>
	<path fill="#FFFFFF" d="M90.64,35.24h4.17V23.16h4.79v12.08h4.17V23.16h4.74v12.08h4.17V22.49c-1.03-1.21-2.1-2.38-3.21-3.51H90.64
		V35.24z"/>
	<polygon fill="#FFFFFF" points="31.74,53.22 31.74,79.95 44.17,92.38 90.78,92.38 90.78,79.65 48.7,79.65 45.1,76.05 45.1,56.95 
		48.7,53.35 90.78,53.35 90.78,40.78 44.17,40.78 	"/>
</g>
</svg>
