<?xml version="1.0" encoding="utf-8"?>
<!-- Generator: Adobe Illustrator 19.2.1, SVG Export Plug-In . SVG Version: 6.00 Build 0)  -->
<svg version="1.1" id="Layer_1" xmlns="http://www.w3.org/2000/svg" xmlns:xlink="http://www.w3.org/1999/xlink" x="0px" y="0px"
	 viewBox="0 0 16 24" enable-background="new 0 0 16 24" xml:space="preserve">
<radialGradient id="SVGID_1_" cx="6.7083" cy="4.6677" r="3.8879" gradientUnits="userSpaceOnUse">
	<stop  offset="0" style="stop-color:#C4E4FF"/>
	<stop  offset="1" style="stop-color:#6F7982"/>
</radialGradient>
<path fill="url(#SVGID_1_)" d="M9,5c0,0,0.37-1.11,0.66-1.98c-0.3-0.27-0.64-0.5-1.02-0.67L8,3H7v1H5L4,5L3.62,3.87
	C3.23,4.49,3,5.22,3,6c0,2.21,1.79,4,4,4s4-1.79,4-4c0-0.85-0.27-1.63-0.72-2.28L9,5z"/>
<g>
	<linearGradient id="SVGID_2_" gradientUnits="userSpaceOnUse" x1="7.9961" y1="6.3241" x2="7.9961" y2="12.5027">
		<stop  offset="0" style="stop-color:#C4E4FF"/>
		<stop  offset="1" style="stop-color:#6F7982"/>
	</linearGradient>
	<path fill="url(#SVGID_2_)" d="M5,12.5c-1.38,0-2.5-1.12-2.5-2.5V8c0-1.39,2.68-1.5,3.5-1.5l5.1-1.01
		c0.17,0.01,0.36,0.05,0.44,0.13c0.14,0.16,0.09,0.69,0.04,1.21C11.54,7.2,11.5,7.59,11.5,8v0.21l1.99,1.99
		c-0.1,1.29-1.18,2.3-2.49,2.3H5z"/>
	<path fill="#231F20" d="M11.09,6c0.01,0,0.03,0,0.04,0c0.01,0.2-0.03,0.53-0.05,0.78C11.04,7.15,11,7.56,11,8v0.41l0.29,0.29
		l1.67,1.67C12.79,11.3,11.97,12,11,12H5c-1.1,0-2-0.9-2-2V8c0-0.69,1.56-1,3-1h0.1l0.1-0.02L11.09,6 M11,5L6,6C4.35,6,2,6.35,2,8v2
		c0,1.65,1.35,3,3,3h6c1.65,0,3-1.35,3-3l-2-2C12,6.35,12.65,5,11,5L11,5z"/>
</g>
<path fill="#231F20" d="M5.5,10h-1C4.22,10,4,9.78,4,9.5v0C4,9.22,4.22,9,4.5,9h1C5.78,9,6,9.22,6,9.5v0C6,9.78,5.78,10,5.5,10z"/>
<path fill="#231F20" d="M10.48,9.98L7.8,11.33c-0.25,0.12-0.55,0.02-0.67-0.22l0,0c-0.12-0.25-0.02-0.55,0.22-0.67l2.68-1.35
	c0.25-0.12,0.55-0.02,0.67,0.22l0,0C10.83,9.56,10.73,9.86,10.48,9.98z"/>
<circle fill="#FFFFFF" cx="6.5" cy="4.5" r="0.5"/>
<path fill="#231F20" d="M2,7.98H1c-0.55,0-1,0.45-1,1V9c0,0.55,0.45,1,1,1h1V7.98z"/>
<path fill="#231F20" d="M12.66,7.92L12,8.67L13.53,10l0.66-0.75c0.36-0.41,0.32-1.05-0.1-1.41l-0.02-0.01
	C13.65,7.46,13.02,7.5,12.66,7.92z"/>
<linearGradient id="SVGID_3_" gradientUnits="userSpaceOnUse" x1="8" y1="13.0208" x2="8" y2="16.0208">
	<stop  offset="0" style="stop-color:#000000"/>
	<stop  offset="1" style="stop-color:#BABABA"/>
</linearGradient>
<polygon fill="url(#SVGID_3_)" points="5,16 6,14 5,13 10,13 10,15 11,16 "/>
<path fill="#231F20" d="M4,15.96c0-0.55-0.45-1-1-1H1c-0.55,0-1,0.45-1,1V16h4V15.96z"/>
<circle fill="#231F20" cx="3" cy="13" r="1"/>
<rect x="1.92" y="13.5" transform="matrix(0.8962 0.4436 -0.4436 0.8962 6.6828 0.4306)" fill="#231F20" width="1" height="2"/>
<path fill="#231F20" d="M15,15h-2c-0.55,0-1,0.45-1,1h4C16,15.45,15.55,15,15,15z"/>
<circle fill="#231F20" cx="15" cy="12" r="1"/>
<rect x="13.56" y="10.54" transform="matrix(0.3905 -0.9206 0.9206 0.3905 -2.0549 19.9778)" fill="#231F20" width="1" height="2"/>
<rect x="13.86" y="12.36" transform="matrix(0.9317 0.3633 -0.3633 0.9317 6.0548 -4.2632)" fill="#231F20" width="1" height="3.22"/>
<polyline fill="none" stroke="#231F20" stroke-linecap="round" stroke-miterlimit="10" points="2.02,8.79 1,5.95 1.84,4 1,2 4,1 "/>
<linearGradient id="SVGID_4_" gradientUnits="userSpaceOnUse" x1="15.5" y1="2.9876" x2="15.5" y2="7.9876">
	<stop  offset="0" style="stop-color:#BABABA"/>
	<stop  offset="1" style="stop-color:#FFFFFF"/>
</linearGradient>
<rect x="15" y="3" fill="url(#SVGID_4_)" width="1" height="5"/>
<linearGradient id="SVGID_5_" gradientUnits="userSpaceOnUse" x1="13.5" y1="1.0069" x2="13.5" y2="5.9861">
	<stop  offset="0" style="stop-color:#BABABA"/>
	<stop  offset="1" style="stop-color:#FFFFFF"/>
</linearGradient>
<rect x="13" y="1" fill="url(#SVGID_5_)" width="1" height="5"/>
<linearGradient id="SVGID_6_" gradientUnits="userSpaceOnUse" x1="10.5" y1="1.0337" x2="10.5" y2="2.9834">
	<stop  offset="0" style="stop-color:#BABABA"/>
	<stop  offset="1" style="stop-color:#FFFFFF"/>
</linearGradient>
<rect x="10" y="1" fill="url(#SVGID_6_)" width="1" height="2"/>
<linearGradient id="SVGID_7_" gradientUnits="userSpaceOnUse" x1="5.5" y1="0.0119" x2="5.5" y2="2.9818">
	<stop  offset="0" style="stop-color:#BABABA"/>
	<stop  offset="1" style="stop-color:#FFFFFF"/>
</linearGradient>
<rect x="5" fill="url(#SVGID_7_)" width="1" height="3"/>
</svg>
